<svg xmlns="http://www.w3.org/2000/svg" xmlns:xlink="http://www.w3.org/1999/xlink" xmlns:s="https://github.com/nturley/netlistsvg" width="1345" height="1180">
  <style>svg {
    stroke:#000;
    fill:none;
  }
  text {
    fill:#000;
    stroke:none;
    font-size:10px;
    font-weight: bold;
    font-family: "Courier New", monospace;
  }
  .nodelabel {
    text-anchor: middle;
  }
  .inputPortLabel {
    text-anchor: end;
  }
  .splitjoinBody {
    fill:#000;
  }</style>
  <g s:type="nand" transform="translate(1004,184.5)" s:width="30" s:height="25" id="cell_$abc$18813$auto$blifparse.cc:371:parse_blif$18814">
    <s:alias val="$nand"/>
    <s:alias val="$logic_nand"/>
    <s:alias val="$_NAND_"/>
    <s:alias val="$_ANDNOT_"/>
    <path d="M0,0 L0,25 L15,25 A15 12.5 0 0 0 15,0 Z" class="cell_$abc$18813$auto$blifparse.cc:371:parse_blif$18814"/>
    <circle cx="34" cy="12.5" r="3" class="cell_$abc$18813$auto$blifparse.cc:371:parse_blif$18814"/>
    <g s:x="0" s:y="5" s:pid="A"/>
    <g s:x="0" s:y="20" s:pid="B"/>
    <g s:x="36" s:y="12.5" s:pid="Y"/>
  </g>
  <g s:type="dff" transform="translate(1075,234.5)" s:width="30" s:height="40" id="cell_$auto$simplemap.cc:420:simplemap_dff$1689">
    <s:alias val="$dff"/>
    <s:alias val="$_DFF_"/>
    <s:alias val="$_DFF_P_"/>
    <rect width="30" height="40" x="0" y="0" class="cell_$auto$simplemap.cc:420:simplemap_dff$1689"/>
    <path d="M0,35 L5,30 L0,25" class="cell_$auto$simplemap.cc:420:simplemap_dff$1689"/>
    <g s:x="30" s:y="10" s:pid="Q"/>
    <g s:x="0" s:y="30" s:pid="CLK"/>
    <g s:x="0" s:y="30" s:pid="C"/>
    <g s:x="0" s:y="10" s:pid="D"/>
  </g>
  <g s:type="generic" transform="translate(180,675)" s:width="30" s:height="40" id="cell_Controller_instant">
    <text x="15" y="-4" class="nodelabel cell_Controller_instant" s:attribute="ref">Controller</text>
    <rect width="30" height="260" s:generic="body" class="cell_Controller_instant"/>
    <g transform="translate(0,10)" s:x="0" s:y="10" s:pid="in0" id="port_Controller_instant~Instruction">
      <text x="-3" y="-4" class="inputPortLabel cell_Controller_instant">Instruction</text>
    </g>
    <g transform="translate(0,30)" s:x="0" s:y="10" s:pid="in0" id="port_Controller_instant~SF">
      <text x="-3" y="-4" class="inputPortLabel cell_Controller_instant">SF</text>
    </g>
    <g transform="translate(0,50)" s:x="0" s:y="10" s:pid="in0" id="port_Controller_instant~ZF">
      <text x="-3" y="-4" class="inputPortLabel cell_Controller_instant">ZF</text>
    </g>
    <g transform="translate(30,10)" s:x="30" s:y="10" s:pid="out0" id="port_Controller_instant~ALUop">
      <text x="5" y="-4" style="fill:#000; stroke:none" class="cell_Controller_instant">ALUop</text>
    </g>
    <g transform="translate(30,30)" s:x="30" s:y="10" s:pid="out0" id="port_Controller_instant~ALUsrc">
      <text x="5" y="-4" style="fill:#000; stroke:none" class="cell_Controller_instant">ALUsrc</text>
    </g>
    <g transform="translate(30,50)" s:x="30" s:y="10" s:pid="out0" id="port_Controller_instant~Branch">
      <text x="5" y="-4" style="fill:#000; stroke:none" class="cell_Controller_instant">Branch</text>
    </g>
    <g transform="translate(30,70)" s:x="30" s:y="10" s:pid="out0" id="port_Controller_instant~Jump">
      <text x="5" y="-4" style="fill:#000; stroke:none" class="cell_Controller_instant">Jump</text>
    </g>
    <g transform="translate(30,90)" s:x="30" s:y="10" s:pid="out0" id="port_Controller_instant~Jump_Reg">
      <text x="5" y="-4" style="fill:#000; stroke:none" class="cell_Controller_instant">Jump_Reg</text>
    </g>
    <g transform="translate(30,110)" s:x="30" s:y="10" s:pid="out0" id="port_Controller_instant~MemRead">
      <text x="5" y="-4" style="fill:#000; stroke:none" class="cell_Controller_instant">MemRead</text>
    </g>
    <g transform="translate(30,130)" s:x="30" s:y="10" s:pid="out0" id="port_Controller_instant~MemWrite">
      <text x="5" y="-4" style="fill:#000; stroke:none" class="cell_Controller_instant">MemWrite</text>
    </g>
    <g transform="translate(30,150)" s:x="30" s:y="10" s:pid="out0" id="port_Controller_instant~MemtoReg">
      <text x="5" y="-4" style="fill:#000; stroke:none" class="cell_Controller_instant">MemtoReg</text>
    </g>
    <g transform="translate(30,170)" s:x="30" s:y="10" s:pid="out0" id="port_Controller_instant~Move">
      <text x="5" y="-4" style="fill:#000; stroke:none" class="cell_Controller_instant">Move</text>
    </g>
    <g transform="translate(30,190)" s:x="30" s:y="10" s:pid="out0" id="port_Controller_instant~RegDest">
      <text x="5" y="-4" style="fill:#000; stroke:none" class="cell_Controller_instant">RegDest</text>
    </g>
    <g transform="translate(30,210)" s:x="30" s:y="10" s:pid="out0" id="port_Controller_instant~RegWrite">
      <text x="5" y="-4" style="fill:#000; stroke:none" class="cell_Controller_instant">RegWrite</text>
    </g>
    <g transform="translate(30,230)" s:x="30" s:y="10" s:pid="out0" id="port_Controller_instant~Shift">
      <text x="5" y="-4" style="fill:#000; stroke:none" class="cell_Controller_instant">Shift</text>
    </g>
    <g transform="translate(30,250)" s:x="30" s:y="10" s:pid="out0" id="port_Controller_instant~Shift_op">
      <text x="5" y="-4" style="fill:#000; stroke:none" class="cell_Controller_instant">Shift_op</text>
    </g>
  </g>
  <g s:type="generic" transform="translate(814,55)" s:width="30" s:height="40" id="cell_PC_next_instant">
    <text x="15" y="-4" class="nodelabel cell_PC_next_instant" s:attribute="ref">PC_next</text>
    <rect width="30" height="100" s:generic="body" class="cell_PC_next_instant"/>
    <g transform="translate(0,10)" s:x="0" s:y="10" s:pid="in0" id="port_PC_next_instant~Imm_addr">
      <text x="-3" y="-4" class="inputPortLabel cell_PC_next_instant">Imm_addr</text>
    </g>
    <g transform="translate(0,30)" s:x="0" s:y="10" s:pid="in0" id="port_PC_next_instant~PC_now">
      <text x="-3" y="-4" class="inputPortLabel cell_PC_next_instant">PC_now</text>
    </g>
    <g transform="translate(0,50)" s:x="0" s:y="10" s:pid="in0" id="port_PC_next_instant~branch">
      <text x="-3" y="-4" class="inputPortLabel cell_PC_next_instant">branch</text>
    </g>
    <g transform="translate(0,70)" s:x="0" s:y="10" s:pid="in0" id="port_PC_next_instant~jump">
      <text x="-3" y="-4" class="inputPortLabel cell_PC_next_instant">jump</text>
    </g>
    <g transform="translate(0,90)" s:x="0" s:y="10" s:pid="in0" id="port_PC_next_instant~jump_reg">
      <text x="-3" y="-4" class="inputPortLabel cell_PC_next_instant">jump_reg</text>
    </g>
    <g transform="translate(30,10)" s:x="30" s:y="10" s:pid="out0" id="port_PC_next_instant~PC_next">
      <text x="5" y="-4" style="fill:#000; stroke:none" class="cell_PC_next_instant">PC_next</text>
    </g>
  </g>
  <g s:type="generic" transform="translate(513,615)" s:width="30" s:height="40" id="cell_Wire_connector_instant">
    <text x="15" y="-4" class="nodelabel cell_Wire_connector_instant" s:attribute="ref">Wire_connector</text>
    <rect width="30" height="320" s:generic="body" class="cell_Wire_connector_instant"/>
    <g transform="translate(0,10)" s:x="0" s:y="10" s:pid="in0" id="port_Wire_connector_instant~ALUsrc">
      <text x="-3" y="-4" class="inputPortLabel cell_Wire_connector_instant">ALUsrc</text>
    </g>
    <g transform="translate(0,30)" s:x="0" s:y="10" s:pid="in0" id="port_Wire_connector_instant~Alu_result">
      <text x="-3" y="-4" class="inputPortLabel cell_Wire_connector_instant">Alu_result</text>
    </g>
    <g transform="translate(0,50)" s:x="0" s:y="10" s:pid="in0" id="port_Wire_connector_instant~Branch">
      <text x="-3" y="-4" class="inputPortLabel cell_Wire_connector_instant">Branch</text>
    </g>
    <g transform="translate(0,70)" s:x="0" s:y="10" s:pid="in0" id="port_Wire_connector_instant~Instruction">
      <text x="-3" y="-4" class="inputPortLabel cell_Wire_connector_instant">Instruction</text>
    </g>
    <g transform="translate(0,90)" s:x="0" s:y="10" s:pid="in0" id="port_Wire_connector_instant~Jump">
      <text x="-3" y="-4" class="inputPortLabel cell_Wire_connector_instant">Jump</text>
    </g>
    <g transform="translate(0,110)" s:x="0" s:y="10" s:pid="in0" id="port_Wire_connector_instant~Jump_Reg">
      <text x="-3" y="-4" class="inputPortLabel cell_Wire_connector_instant">Jump_Reg</text>
    </g>
    <g transform="translate(0,130)" s:x="0" s:y="10" s:pid="in0" id="port_Wire_connector_instant~Mem_read_data">
      <text x="-3" y="-4" class="inputPortLabel cell_Wire_connector_instant">Mem_read_data</text>
    </g>
    <g transform="translate(0,150)" s:x="0" s:y="10" s:pid="in0" id="port_Wire_connector_instant~MemtoReg">
      <text x="-3" y="-4" class="inputPortLabel cell_Wire_connector_instant">MemtoReg</text>
    </g>
    <g transform="translate(0,170)" s:x="0" s:y="10" s:pid="in0" id="port_Wire_connector_instant~Move">
      <text x="-3" y="-4" class="inputPortLabel cell_Wire_connector_instant">Move</text>
    </g>
    <g transform="translate(0,190)" s:x="0" s:y="10" s:pid="in0" id="port_Wire_connector_instant~PC_now">
      <text x="-3" y="-4" class="inputPortLabel cell_Wire_connector_instant">PC_now</text>
    </g>
    <g transform="translate(0,210)" s:x="0" s:y="10" s:pid="in0" id="port_Wire_connector_instant~RegDest">
      <text x="-3" y="-4" class="inputPortLabel cell_Wire_connector_instant">RegDest</text>
    </g>
    <g transform="translate(0,230)" s:x="0" s:y="10" s:pid="in0" id="port_Wire_connector_instant~RegWrite">
      <text x="-3" y="-4" class="inputPortLabel cell_Wire_connector_instant">RegWrite</text>
    </g>
    <g transform="translate(0,250)" s:x="0" s:y="10" s:pid="in0" id="port_Wire_connector_instant~Rs_data">
      <text x="-3" y="-4" class="inputPortLabel cell_Wire_connector_instant">Rs_data</text>
    </g>
    <g transform="translate(0,270)" s:x="0" s:y="10" s:pid="in0" id="port_Wire_connector_instant~Rt_data">
      <text x="-3" y="-4" class="inputPortLabel cell_Wire_connector_instant">Rt_data</text>
    </g>
    <g transform="translate(0,290)" s:x="0" s:y="10" s:pid="in0" id="port_Wire_connector_instant~Shift">
      <text x="-3" y="-4" class="inputPortLabel cell_Wire_connector_instant">Shift</text>
    </g>
    <g transform="translate(0,310)" s:x="0" s:y="10" s:pid="in0" id="port_Wire_connector_instant~shifter_result">
      <text x="-3" y="-4" class="inputPortLabel cell_Wire_connector_instant">shifter_result</text>
    </g>
    <g transform="translate(30,10)" s:x="30" s:y="10" s:pid="out0" id="port_Wire_connector_instant~Address">
      <text x="5" y="-4" style="fill:#000; stroke:none" class="cell_Wire_connector_instant">Address</text>
    </g>
    <g transform="translate(30,30)" s:x="30" s:y="10" s:pid="out0" id="port_Wire_connector_instant~PC_Imm_addr">
      <text x="5" y="-4" style="fill:#000; stroke:none" class="cell_Wire_connector_instant">PC_Imm_addr</text>
    </g>
    <g transform="translate(30,50)" s:x="30" s:y="10" s:pid="out0" id="port_Wire_connector_instant~RF_raddr1">
      <text x="5" y="-4" style="fill:#000; stroke:none" class="cell_Wire_connector_instant">RF_raddr1</text>
    </g>
    <g transform="translate(30,70)" s:x="30" s:y="10" s:pid="out0" id="port_Wire_connector_instant~RF_raddr2">
      <text x="5" y="-4" style="fill:#000; stroke:none" class="cell_Wire_connector_instant">RF_raddr2</text>
    </g>
    <g transform="translate(30,90)" s:x="30" s:y="10" s:pid="out0" id="port_Wire_connector_instant~RF_waddr">
      <text x="5" y="-4" style="fill:#000; stroke:none" class="cell_Wire_connector_instant">RF_waddr</text>
    </g>
    <g transform="translate(30,110)" s:x="30" s:y="10" s:pid="out0" id="port_Wire_connector_instant~RF_wdata">
      <text x="5" y="-4" style="fill:#000; stroke:none" class="cell_Wire_connector_instant">RF_wdata</text>
    </g>
    <g transform="translate(30,130)" s:x="30" s:y="10" s:pid="out0" id="port_Wire_connector_instant~RF_wen">
      <text x="5" y="-4" style="fill:#000; stroke:none" class="cell_Wire_connector_instant">RF_wen</text>
    </g>
    <g transform="translate(30,150)" s:x="30" s:y="10" s:pid="out0" id="port_Wire_connector_instant~Write_data">
      <text x="5" y="-4" style="fill:#000; stroke:none" class="cell_Wire_connector_instant">Write_data</text>
    </g>
    <g transform="translate(30,170)" s:x="30" s:y="10" s:pid="out0" id="port_Wire_connector_instant~Write_strb">
      <text x="5" y="-4" style="fill:#000; stroke:none" class="cell_Wire_connector_instant">Write_strb</text>
    </g>
    <g transform="translate(30,190)" s:x="30" s:y="10" s:pid="out0" id="port_Wire_connector_instant~alu_oprandA">
      <text x="5" y="-4" style="fill:#000; stroke:none" class="cell_Wire_connector_instant">alu_oprandA</text>
    </g>
    <g transform="translate(30,210)" s:x="30" s:y="10" s:pid="out0" id="port_Wire_connector_instant~alu_oprandB">
      <text x="5" y="-4" style="fill:#000; stroke:none" class="cell_Wire_connector_instant">alu_oprandB</text>
    </g>
    <g transform="translate(30,230)" s:x="30" s:y="10" s:pid="out0" id="port_Wire_connector_instant~shifter_oprand1">
      <text x="5" y="-4" style="fill:#000; stroke:none" class="cell_Wire_connector_instant">shifter_oprand1</text>
    </g>
    <g transform="translate(30,250)" s:x="30" s:y="10" s:pid="out0" id="port_Wire_connector_instant~shifter_oprand2">
      <text x="5" y="-4" style="fill:#000; stroke:none" class="cell_Wire_connector_instant">shifter_oprand2</text>
    </g>
  </g>
  <g s:type="generic" transform="translate(1183,745)" s:width="30" s:height="40" id="cell_alu_instant">
    <text x="15" y="-4" class="nodelabel cell_alu_instant" s:attribute="ref">alu</text>
    <rect width="30" height="60" s:generic="body" class="cell_alu_instant"/>
    <g transform="translate(0,10)" s:x="0" s:y="10" s:pid="in0" id="port_alu_instant~A">
      <text x="-3" y="-4" class="inputPortLabel cell_alu_instant">A</text>
    </g>
    <g transform="translate(0,30)" s:x="0" s:y="10" s:pid="in0" id="port_alu_instant~ALUop">
      <text x="-3" y="-4" class="inputPortLabel cell_alu_instant">ALUop</text>
    </g>
    <g transform="translate(0,50)" s:x="0" s:y="10" s:pid="in0" id="port_alu_instant~B">
      <text x="-3" y="-4" class="inputPortLabel cell_alu_instant">B</text>
    </g>
    <g transform="translate(30,10)" s:x="30" s:y="10" s:pid="out0" id="port_alu_instant~Result">
      <text x="5" y="-4" style="fill:#000; stroke:none" class="cell_alu_instant">Result</text>
    </g>
    <g transform="translate(30,30)" s:x="30" s:y="10" s:pid="out0" id="port_alu_instant~Sign">
      <text x="5" y="-4" style="fill:#000; stroke:none" class="cell_alu_instant">Sign</text>
    </g>
    <g transform="translate(30,50)" s:x="30" s:y="10" s:pid="out0" id="port_alu_instant~Zero">
      <text x="5" y="-4" style="fill:#000; stroke:none" class="cell_alu_instant">Zero</text>
    </g>
  </g>
  <g s:type="generic" transform="translate(1177,441.5)" s:width="30" s:height="40" id="cell_reg_file_instant">
    <text x="15" y="-4" class="nodelabel cell_reg_file_instant" s:attribute="ref">reg_file</text>
    <rect width="30" height="140" s:generic="body" class="cell_reg_file_instant"/>
    <g transform="translate(0,10)" s:x="0" s:y="10" s:pid="in0" id="port_reg_file_instant~clk">
      <text x="-3" y="-4" class="inputPortLabel cell_reg_file_instant">clk</text>
    </g>
    <g transform="translate(0,30)" s:x="0" s:y="10" s:pid="in0" id="port_reg_file_instant~raddr1">
      <text x="-3" y="-4" class="inputPortLabel cell_reg_file_instant">raddr1</text>
    </g>
    <g transform="translate(0,50)" s:x="0" s:y="10" s:pid="in0" id="port_reg_file_instant~raddr2">
      <text x="-3" y="-4" class="inputPortLabel cell_reg_file_instant">raddr2</text>
    </g>
    <g transform="translate(0,70)" s:x="0" s:y="10" s:pid="in0" id="port_reg_file_instant~rst">
      <text x="-3" y="-4" class="inputPortLabel cell_reg_file_instant">rst</text>
    </g>
    <g transform="translate(0,90)" s:x="0" s:y="10" s:pid="in0" id="port_reg_file_instant~waddr">
      <text x="-3" y="-4" class="inputPortLabel cell_reg_file_instant">waddr</text>
    </g>
    <g transform="translate(0,110)" s:x="0" s:y="10" s:pid="in0" id="port_reg_file_instant~wdata">
      <text x="-3" y="-4" class="inputPortLabel cell_reg_file_instant">wdata</text>
    </g>
    <g transform="translate(0,130)" s:x="0" s:y="10" s:pid="in0" id="port_reg_file_instant~wen">
      <text x="-3" y="-4" class="inputPortLabel cell_reg_file_instant">wen</text>
    </g>
    <g transform="translate(30,10)" s:x="30" s:y="10" s:pid="out0" id="port_reg_file_instant~rdata1">
      <text x="5" y="-4" style="fill:#000; stroke:none" class="cell_reg_file_instant">rdata1</text>
    </g>
    <g transform="translate(30,30)" s:x="30" s:y="10" s:pid="out0" id="port_reg_file_instant~rdata2">
      <text x="5" y="-4" style="fill:#000; stroke:none" class="cell_reg_file_instant">rdata2</text>
    </g>
  </g>
  <g s:type="generic" transform="translate(1183,968)" s:width="30" s:height="40" id="cell_shifter_instant">
    <text x="15" y="-4" class="nodelabel cell_shifter_instant" s:attribute="ref">shifter</text>
    <rect width="30" height="60" s:generic="body" class="cell_shifter_instant"/>
    <g transform="translate(0,10)" s:x="0" s:y="10" s:pid="in0" id="port_shifter_instant~A">
      <text x="-3" y="-4" class="inputPortLabel cell_shifter_instant">A</text>
    </g>
    <g transform="translate(0,30)" s:x="0" s:y="10" s:pid="in0" id="port_shifter_instant~B">
      <text x="-3" y="-4" class="inputPortLabel cell_shifter_instant">B</text>
    </g>
    <g transform="translate(0,50)" s:x="0" s:y="10" s:pid="in0" id="port_shifter_instant~Shiftop">
      <text x="-3" y="-4" class="inputPortLabel cell_shifter_instant">Shiftop</text>
    </g>
    <g transform="translate(30,10)" s:x="30" s:y="10" s:pid="out0" id="port_shifter_instant~Result">
      <text x="5" y="-4" style="fill:#000; stroke:none" class="cell_shifter_instant">Result</text>
    </g>
  </g>
  <g s:type="inputExt" transform="translate(939,462)" s:width="30" s:height="20" id="cell_rst">
    <text x="15" y="-4" class="nodelabel cell_rst" s:attribute="ref">rst</text>
    <s:alias val="$_inputExt_"/>
    <path d="M0,0 L0,20 L15,20 L30,10 L15,0 Z" class="cell_rst"/>
    <g s:x="28" s:y="10" s:pid="Y"/>
  </g>
  <g s:type="inputExt" transform="translate(1004,254.5)" s:width="30" s:height="20" id="cell_clk">
    <text x="15" y="-4" class="nodelabel cell_clk" s:attribute="ref">clk</text>
    <s:alias val="$_inputExt_"/>
    <path d="M0,0 L0,20 L15,20 L30,10 L15,0 Z" class="cell_clk"/>
    <g s:x="28" s:y="10" s:pid="Y"/>
  </g>
  <g s:type="inputExt" transform="translate(12,675.5)" s:width="30" s:height="20" id="cell_Instruction">
    <text x="15" y="-4" class="nodelabel cell_Instruction" s:attribute="ref">Instruction</text>
    <s:alias val="$_inputExt_"/>
    <path d="M0,0 L0,20 L15,20 L30,10 L15,0 Z" class="cell_Instruction"/>
    <g s:x="28" s:y="10" s:pid="Y"/>
  </g>
  <g s:type="inputExt" transform="translate(180,610)" s:width="30" s:height="20" id="cell_Read_data">
    <text x="15" y="-4" class="nodelabel cell_Read_data" s:attribute="ref">Read_data</text>
    <s:alias val="$_inputExt_"/>
    <path d="M0,0 L0,20 L15,20 L30,10 L15,0 Z" class="cell_Read_data"/>
    <g s:x="28" s:y="10" s:pid="Y"/>
  </g>
  <g s:type="outputExt" transform="translate(1183,234.5)" s:width="30" s:height="20" id="cell_PC">
    <text x="15" y="-4" class="nodelabel cell_PC" s:attribute="ref">PC</text>
    <s:alias val="$_outputExt_"/>
    <path d="M30,0 L30,20 L15,20 L0,10 L15,0 Z" class="cell_PC"/>
    <g s:x="0" s:y="10" s:pid="A"/>
  </g>
  <g s:type="outputExt" transform="translate(1183,299.5)" s:width="30" s:height="20" id="cell_Address">
    <text x="15" y="-4" class="nodelabel cell_Address" s:attribute="ref">Address</text>
    <s:alias val="$_outputExt_"/>
    <path d="M30,0 L30,20 L15,20 L0,10 L15,0 Z" class="cell_Address"/>
    <g s:x="0" s:y="10" s:pid="A"/>
  </g>
  <g s:type="outputExt" transform="translate(1183,1137)" s:width="30" s:height="20" id="cell_MemWrite">
    <text x="15" y="-4" class="nodelabel cell_MemWrite" s:attribute="ref">MemWrite</text>
    <s:alias val="$_outputExt_"/>
    <path d="M30,0 L30,20 L15,20 L0,10 L15,0 Z" class="cell_MemWrite"/>
    <g s:x="0" s:y="10" s:pid="A"/>
  </g>
  <g s:type="outputExt" transform="translate(1183,853)" s:width="30" s:height="20" id="cell_Write_data">
    <text x="15" y="-4" class="nodelabel cell_Write_data" s:attribute="ref">Write_data</text>
    <s:alias val="$_outputExt_"/>
    <path d="M30,0 L30,20 L15,20 L0,10 L15,0 Z" class="cell_Write_data"/>
    <g s:x="0" s:y="10" s:pid="A"/>
  </g>
  <g s:type="outputExt" transform="translate(1183,918)" s:width="30" s:height="20" id="cell_Write_strb">
    <text x="15" y="-4" class="nodelabel cell_Write_strb" s:attribute="ref">Write_strb</text>
    <s:alias val="$_outputExt_"/>
    <path d="M30,0 L30,20 L15,20 L0,10 L15,0 Z" class="cell_Write_strb"/>
    <g s:x="0" s:y="10" s:pid="A"/>
  </g>
  <g s:type="outputExt" transform="translate(1183,1072)" s:width="30" s:height="20" id="cell_MemRead">
    <text x="15" y="-4" class="nodelabel cell_MemRead" s:attribute="ref">MemRead</text>
    <s:alias val="$_outputExt_"/>
    <path d="M30,0 L30,20 L15,20 L0,10 L15,0 Z" class="cell_MemRead"/>
    <g s:x="0" s:y="10" s:pid="A"/>
  </g>
  <g s:type="constant" transform="translate(1075,377)" s:width="30" s:height="20" id="cell_0000000000000000000000000000000">
    <text x="15" y="-4" class="nodelabel cell_0000000000000000000000000000000" s:attribute="ref">0x0</text>
    <s:alias val="$_constant_"/>
    <rect width="30" height="20" class="cell_0000000000000000000000000000000"/>
    <g s:x="30" s:y="10" s:pid="Y"/>
  </g>
  <g s:type="join" transform="translate(1183,356.5)" s:width="4" s:height="40" id="cell_$join$,68,497,498,499,500,501,502,503,504,505,506,507,508,509,510,511,512,513,514,515,516,517,518,519,520,521,522,523,524,525,526,527,">
    <rect width="5" height="40" class="splitjoinBody" s:generic="body"/>
    <s:alias val="$_join_"/>
    <g s:x="5" s:y="20" s:pid="out"/>
    <g transform="translate(0,10)" s:x="0" s:y="10" s:pid="in0">
      <text x="-3" y="-4" class="inputPortLabel">0</text>
    </g>
    <g transform="translate(0,30)" s:x="0" s:y="10" s:pid="in0">
      <text x="-3" y="-4" class="inputPortLabel">1:31</text>
    </g>
  </g>
  <g s:type="split" transform="translate(957,179)" s:width="5" s:height="40" id="cell_$split$,139,189,190,191,192,193,194,195,196,197,198,199,200,201,202,203,204,205,206,207,208,209,210,211,212,213,214,215,216,217,218,219,">
    <rect width="5" height="20" class="splitjoinBody" s:generic="body"/>
    <s:alias val="$_split_"/>
    <g s:x="0" s:y="20" s:pid="in"/>
    <g transform="translate(4,10)" s:x="4" s:y="10" s:pid="out0">
      <text x="5" y="-4">0</text>
    </g>
  </g>
  <line x1="962" x2="1004" y1="189.5" y2="189.5" class="net_139"/>
  <line x1="967" x2="979" y1="472" y2="472" class="net_2"/>
  <line x1="979" x2="979" y1="472" y2="204.5" class="net_2"/>
  <circle cx="979" cy="472" r="2" style="fill:#000" class="net_2"/>
  <line x1="979" x2="1004" y1="204.5" y2="204.5" class="net_2"/>
  <line x1="967" x2="979" y1="472" y2="472" class="net_2"/>
  <line x1="979" x2="979" y1="472" y2="512" class="net_2"/>
  <line x1="979" x2="1177" y1="512" y2="512" class="net_2"/>
  <line x1="1032" x2="1075" y1="264.5" y2="264.5" class="net_3"/>
  <line x1="1032" x2="1050" y1="264.5" y2="264.5" class="net_3"/>
  <line x1="1050" x2="1050" y1="264.5" y2="430" class="net_3"/>
  <line x1="1050" x2="1125" y1="430" y2="430" class="net_3"/>
  <line x1="1125" x2="1125" y1="430" y2="452" class="net_3"/>
  <circle cx="1050" cy="264.5" r="2" style="fill:#000" class="net_3"/>
  <line x1="1125" x2="1177" y1="452" y2="452" class="net_3"/>
  <line x1="1040" x2="1050" y1="197" y2="197" class="net_140"/>
  <line x1="1050" x2="1050" y1="197" y2="244.5" class="net_140"/>
  <line x1="1050" x2="1075" y1="244.5" y2="244.5" class="net_140"/>
  <line x1="40" x2="180" y1="685.5" y2="685.5" class="net_4,5,6,7,8,9,10,11,12,13,14,15,16,17,18,19,20,21,22,23,24,25,26,27,28,29,30,31,32,33,34,35"/>
  <line x1="40" x2="98" y1="685.5" y2="685.5" class="net_4,5,6,7,8,9,10,11,12,13,14,15,16,17,18,19,20,21,22,23,24,25,26,27,28,29,30,31,32,33,34,35"/>
  <line x1="98" x2="98" y1="685.5" y2="589" class="net_4,5,6,7,8,9,10,11,12,13,14,15,16,17,18,19,20,21,22,23,24,25,26,27,28,29,30,31,32,33,34,35"/>
  <line x1="98" x2="398" y1="589" y2="589" class="net_4,5,6,7,8,9,10,11,12,13,14,15,16,17,18,19,20,21,22,23,24,25,26,27,28,29,30,31,32,33,34,35"/>
  <line x1="398" x2="398" y1="589" y2="685.5" class="net_4,5,6,7,8,9,10,11,12,13,14,15,16,17,18,19,20,21,22,23,24,25,26,27,28,29,30,31,32,33,34,35"/>
  <circle cx="98" cy="685.5" r="2" style="fill:#000" class="net_4,5,6,7,8,9,10,11,12,13,14,15,16,17,18,19,20,21,22,23,24,25,26,27,28,29,30,31,32,33,34,35"/>
  <line x1="398" x2="513" y1="685.5" y2="685.5" class="net_4,5,6,7,8,9,10,11,12,13,14,15,16,17,18,19,20,21,22,23,24,25,26,27,28,29,30,31,32,33,34,35"/>
  <line x1="1214" x2="1333" y1="775.5" y2="775.5" class="net_152"/>
  <line x1="1333" x2="1333" y1="775.5" y2="12" class="net_152"/>
  <line x1="1333" x2="88" y1="12" y2="12" class="net_152"/>
  <line x1="88" x2="88" y1="12" y2="705.5" class="net_152"/>
  <line x1="88" x2="180" y1="705.5" y2="705.5" class="net_152"/>
  <line x1="1214" x2="1313" y1="795.5" y2="795.5" class="net_156"/>
  <line x1="1313" x2="1313" y1="795.5" y2="1167" class="net_156"/>
  <line x1="1313" x2="98" y1="1167" y2="1167" class="net_156"/>
  <line x1="98" x2="98" y1="1167" y2="725.5" class="net_156"/>
  <line x1="98" x2="180" y1="725.5" y2="725.5" class="net_156"/>
  <line x1="544" x2="665" y1="645.5" y2="645.5" class="net_157,158,159,160,161,162,163,164,165,166,167,168,169,170,171,172,173,174,175,176,177,178,179,180,181,182,183,184,185,186,187,188"/>
  <line x1="665" x2="665" y1="645.5" y2="65.5" class="net_157,158,159,160,161,162,163,164,165,166,167,168,169,170,171,172,173,174,175,176,177,178,179,180,181,182,183,184,185,186,187,188"/>
  <line x1="665" x2="814" y1="65.5" y2="65.5" class="net_157,158,159,160,161,162,163,164,165,166,167,168,169,170,171,172,173,174,175,176,177,178,179,180,181,182,183,184,185,186,187,188"/>
  <line x1="1189" x2="1303" y1="377" y2="377" class="net_68,497,498,499,500,501,502,503,504,505,506,507,508,509,510,511,512,513,514,515,516,517,518,519,520,521,522,523,524,525,526,527"/>
  <line x1="1303" x2="1303" y1="377" y2="23" class="net_68,497,498,499,500,501,502,503,504,505,506,507,508,509,510,511,512,513,514,515,516,517,518,519,520,521,522,523,524,525,526,527"/>
  <line x1="1303" x2="755" y1="23" y2="23" class="net_68,497,498,499,500,501,502,503,504,505,506,507,508,509,510,511,512,513,514,515,516,517,518,519,520,521,522,523,524,525,526,527"/>
  <line x1="755" x2="755" y1="23" y2="85.5" class="net_68,497,498,499,500,501,502,503,504,505,506,507,508,509,510,511,512,513,514,515,516,517,518,519,520,521,522,523,524,525,526,527"/>
  <circle cx="1303" cy="377" r="2" style="fill:#000" class="net_68,497,498,499,500,501,502,503,504,505,506,507,508,509,510,511,512,513,514,515,516,517,518,519,520,521,522,523,524,525,526,527"/>
  <line x1="755" x2="814" y1="85.5" y2="85.5" class="net_68,497,498,499,500,501,502,503,504,505,506,507,508,509,510,511,512,513,514,515,516,517,518,519,520,521,522,523,524,525,526,527"/>
  <line x1="1189" x2="1303" y1="377" y2="377" class="net_68,497,498,499,500,501,502,503,504,505,506,507,508,509,510,511,512,513,514,515,516,517,518,519,520,521,522,523,524,525,526,527"/>
  <line x1="1303" x2="1303" y1="377" y2="948" class="net_68,497,498,499,500,501,502,503,504,505,506,507,508,509,510,511,512,513,514,515,516,517,518,519,520,521,522,523,524,525,526,527"/>
  <line x1="1303" x2="408" y1="948" y2="948" class="net_68,497,498,499,500,501,502,503,504,505,506,507,508,509,510,511,512,513,514,515,516,517,518,519,520,521,522,523,524,525,526,527"/>
  <line x1="408" x2="408" y1="948" y2="805.5" class="net_68,497,498,499,500,501,502,503,504,505,506,507,508,509,510,511,512,513,514,515,516,517,518,519,520,521,522,523,524,525,526,527"/>
  <line x1="408" x2="513" y1="805.5" y2="805.5" class="net_68,497,498,499,500,501,502,503,504,505,506,507,508,509,510,511,512,513,514,515,516,517,518,519,520,521,522,523,524,525,526,527"/>
  <line x1="211" x2="318" y1="725.5" y2="725.5" class="net_145"/>
  <line x1="318" x2="318" y1="725.5" y2="105.5" class="net_145"/>
  <line x1="318" x2="814" y1="105.5" y2="105.5" class="net_145"/>
  <line x1="211" x2="318" y1="725.5" y2="725.5" class="net_145"/>
  <line x1="318" x2="318" y1="725.5" y2="665.5" class="net_145"/>
  <circle cx="318" cy="665.5" r="2" style="fill:#000" class="net_145"/>
  <line x1="318" x2="513" y1="665.5" y2="665.5" class="net_145"/>
  <line x1="211" x2="328" y1="745.5" y2="745.5" class="net_146"/>
  <line x1="328" x2="328" y1="745.5" y2="125.5" class="net_146"/>
  <line x1="328" x2="814" y1="125.5" y2="125.5" class="net_146"/>
  <line x1="211" x2="328" y1="745.5" y2="745.5" class="net_146"/>
  <line x1="328" x2="328" y1="745.5" y2="705.5" class="net_146"/>
  <circle cx="328" cy="705.5" r="2" style="fill:#000" class="net_146"/>
  <line x1="328" x2="513" y1="705.5" y2="705.5" class="net_146"/>
  <line x1="211" x2="348" y1="765.5" y2="765.5" class="net_147"/>
  <line x1="348" x2="348" y1="765.5" y2="145.5" class="net_147"/>
  <line x1="348" x2="814" y1="145.5" y2="145.5" class="net_147"/>
  <line x1="211" x2="348" y1="765.5" y2="765.5" class="net_147"/>
  <line x1="348" x2="348" y1="765.5" y2="725.5" class="net_147"/>
  <circle cx="348" cy="725.5" r="2" style="fill:#000" class="net_147"/>
  <line x1="348" x2="513" y1="725.5" y2="725.5" class="net_147"/>
  <line x1="211" x2="308" y1="705.5" y2="705.5" class="net_144"/>
  <line x1="308" x2="308" y1="705.5" y2="625.5" class="net_144"/>
  <line x1="308" x2="513" y1="625.5" y2="625.5" class="net_144"/>
  <line x1="1214" x2="1293" y1="755.5" y2="755.5" class="net_220,221,222,223,224,225,226,227,228,229,230,231,232,233,234,235,236,237,238,239,240,241,242,243,244,245,246,247,248,249,250,251"/>
  <line x1="1293" x2="1293" y1="755.5" y2="168" class="net_220,221,222,223,224,225,226,227,228,229,230,231,232,233,234,235,236,237,238,239,240,241,242,243,244,245,246,247,248,249,250,251"/>
  <line x1="1293" x2="418" y1="168" y2="168" class="net_220,221,222,223,224,225,226,227,228,229,230,231,232,233,234,235,236,237,238,239,240,241,242,243,244,245,246,247,248,249,250,251"/>
  <line x1="418" x2="418" y1="168" y2="645.5" class="net_220,221,222,223,224,225,226,227,228,229,230,231,232,233,234,235,236,237,238,239,240,241,242,243,244,245,246,247,248,249,250,251"/>
  <line x1="418" x2="513" y1="645.5" y2="645.5" class="net_220,221,222,223,224,225,226,227,228,229,230,231,232,233,234,235,236,237,238,239,240,241,242,243,244,245,246,247,248,249,250,251"/>
  <line x1="208" x2="338" y1="620" y2="620" class="net_36,37,38,39,40,41,42,43,44,45,46,47,48,49,50,51,52,53,54,55,56,57,58,59,60,61,62,63,64,65,66,67"/>
  <line x1="338" x2="338" y1="620" y2="745.5" class="net_36,37,38,39,40,41,42,43,44,45,46,47,48,49,50,51,52,53,54,55,56,57,58,59,60,61,62,63,64,65,66,67"/>
  <line x1="338" x2="513" y1="745.5" y2="745.5" class="net_36,37,38,39,40,41,42,43,44,45,46,47,48,49,50,51,52,53,54,55,56,57,58,59,60,61,62,63,64,65,66,67"/>
  <line x1="211" x2="358" y1="825.5" y2="825.5" class="net_148"/>
  <line x1="358" x2="358" y1="825.5" y2="765.5" class="net_148"/>
  <line x1="358" x2="513" y1="765.5" y2="765.5" class="net_148"/>
  <line x1="211" x2="328" y1="845.5" y2="845.5" class="net_149"/>
  <line x1="328" x2="328" y1="845.5" y2="785.5" class="net_149"/>
  <line x1="328" x2="513" y1="785.5" y2="785.5" class="net_149"/>
  <line x1="211" x2="368" y1="865.5" y2="865.5" class="net_150"/>
  <line x1="368" x2="368" y1="865.5" y2="825.5" class="net_150"/>
  <line x1="368" x2="513" y1="825.5" y2="825.5" class="net_150"/>
  <line x1="211" x2="378" y1="885.5" y2="885.5" class="net_151"/>
  <line x1="378" x2="378" y1="885.5" y2="845.5" class="net_151"/>
  <line x1="378" x2="513" y1="845.5" y2="845.5" class="net_151"/>
  <line x1="1208" x2="1323" y1="452" y2="452" class="net_300,301,302,303,304,305,306,307,308,309,310,311,312,313,314,315,316,317,318,319,320,321,322,323,324,325,326,327,328,329,330,331"/>
  <line x1="1323" x2="1323" y1="452" y2="1052" class="net_300,301,302,303,304,305,306,307,308,309,310,311,312,313,314,315,316,317,318,319,320,321,322,323,324,325,326,327,328,329,330,331"/>
  <line x1="1323" x2="398" y1="1052" y2="1052" class="net_300,301,302,303,304,305,306,307,308,309,310,311,312,313,314,315,316,317,318,319,320,321,322,323,324,325,326,327,328,329,330,331"/>
  <line x1="398" x2="398" y1="1052" y2="865.5" class="net_300,301,302,303,304,305,306,307,308,309,310,311,312,313,314,315,316,317,318,319,320,321,322,323,324,325,326,327,328,329,330,331"/>
  <line x1="398" x2="513" y1="865.5" y2="865.5" class="net_300,301,302,303,304,305,306,307,308,309,310,311,312,313,314,315,316,317,318,319,320,321,322,323,324,325,326,327,328,329,330,331"/>
  <line x1="1208" x2="1283" y1="472" y2="472" class="net_332,333,334,335,336,337,338,339,340,341,342,343,344,345,346,347,348,349,350,351,352,353,354,355,356,357,358,359,360,361,362,363"/>
  <line x1="1283" x2="1283" y1="472" y2="34" class="net_332,333,334,335,336,337,338,339,340,341,342,343,344,345,346,347,348,349,350,351,352,353,354,355,356,357,358,359,360,361,362,363"/>
  <line x1="1283" x2="388" y1="34" y2="34" class="net_332,333,334,335,336,337,338,339,340,341,342,343,344,345,346,347,348,349,350,351,352,353,354,355,356,357,358,359,360,361,362,363"/>
  <line x1="388" x2="388" y1="34" y2="885.5" class="net_332,333,334,335,336,337,338,339,340,341,342,343,344,345,346,347,348,349,350,351,352,353,354,355,356,357,358,359,360,361,362,363"/>
  <line x1="388" x2="513" y1="885.5" y2="885.5" class="net_332,333,334,335,336,337,338,339,340,341,342,343,344,345,346,347,348,349,350,351,352,353,354,355,356,357,358,359,360,361,362,363"/>
  <line x1="211" x2="513" y1="905.5" y2="905.5" class="net_153"/>
  <line x1="1214" x2="1283" y1="978.5" y2="978.5" class="net_465,466,467,468,469,470,471,472,473,474,475,476,477,478,479,480,481,482,483,484,485,486,487,488,489,490,491,492,493,494,495,496"/>
  <line x1="1283" x2="1283" y1="978.5" y2="1041" class="net_465,466,467,468,469,470,471,472,473,474,475,476,477,478,479,480,481,482,483,484,485,486,487,488,489,490,491,492,493,494,495,496"/>
  <line x1="1283" x2="418" y1="1041" y2="1041" class="net_465,466,467,468,469,470,471,472,473,474,475,476,477,478,479,480,481,482,483,484,485,486,487,488,489,490,491,492,493,494,495,496"/>
  <line x1="418" x2="418" y1="1041" y2="925.5" class="net_465,466,467,468,469,470,471,472,473,474,475,476,477,478,479,480,481,482,483,484,485,486,487,488,489,490,491,492,493,494,495,496"/>
  <line x1="418" x2="513" y1="925.5" y2="925.5" class="net_465,466,467,468,469,470,471,472,473,474,475,476,477,478,479,480,481,482,483,484,485,486,487,488,489,490,491,492,493,494,495,496"/>
  <line x1="544" x2="725" y1="805.5" y2="805.5" class="net_364,365,366,367,368,369,370,371,372,373,374,375,376,377,378,379,380,381,382,383,384,385,386,387,388,389,390,391,392,393,394,395"/>
  <line x1="725" x2="725" y1="805.5" y2="583" class="net_364,365,366,367,368,369,370,371,372,373,374,375,376,377,378,379,380,381,382,383,384,385,386,387,388,389,390,391,392,393,394,395"/>
  <line x1="725" x2="1125" y1="583" y2="583" class="net_364,365,366,367,368,369,370,371,372,373,374,375,376,377,378,379,380,381,382,383,384,385,386,387,388,389,390,391,392,393,394,395"/>
  <line x1="1125" x2="1125" y1="583" y2="755.5" class="net_364,365,366,367,368,369,370,371,372,373,374,375,376,377,378,379,380,381,382,383,384,385,386,387,388,389,390,391,392,393,394,395"/>
  <line x1="1125" x2="1183" y1="755.5" y2="755.5" class="net_364,365,366,367,368,369,370,371,372,373,374,375,376,377,378,379,380,381,382,383,384,385,386,387,388,389,390,391,392,393,394,395"/>
  <line x1="211" x2="298" y1="685.5" y2="685.5" class="net_141,142,143"/>
  <line x1="298" x2="298" y1="685.5" y2="594" class="net_141,142,143"/>
  <line x1="298" x2="1115" y1="594" y2="594" class="net_141,142,143"/>
  <line x1="1115" x2="1115" y1="594" y2="775.5" class="net_141,142,143"/>
  <line x1="1115" x2="1183" y1="775.5" y2="775.5" class="net_141,142,143"/>
  <line x1="544" x2="745" y1="825.5" y2="825.5" class="net_396,397,398,399,400,401,402,403,404,405,406,407,408,409,410,411,412,413,414,415,416,417,418,419,420,421,422,423,424,425,426,427"/>
  <line x1="745" x2="745" y1="825.5" y2="795.5" class="net_396,397,398,399,400,401,402,403,404,405,406,407,408,409,410,411,412,413,414,415,416,417,418,419,420,421,422,423,424,425,426,427"/>
  <line x1="745" x2="1183" y1="795.5" y2="795.5" class="net_396,397,398,399,400,401,402,403,404,405,406,407,408,409,410,411,412,413,414,415,416,417,418,419,420,421,422,423,424,425,426,427"/>
  <line x1="544" x2="675" y1="665.5" y2="665.5" class="net_252,253,254,255,256"/>
  <line x1="675" x2="675" y1="665.5" y2="441" class="net_252,253,254,255,256"/>
  <line x1="675" x2="1115" y1="441" y2="441" class="net_252,253,254,255,256"/>
  <line x1="1115" x2="1115" y1="441" y2="472" class="net_252,253,254,255,256"/>
  <line x1="1115" x2="1177" y1="472" y2="472" class="net_252,253,254,255,256"/>
  <line x1="544" x2="685" y1="685.5" y2="685.5" class="net_257,258,259,260,261"/>
  <line x1="685" x2="685" y1="685.5" y2="492" class="net_257,258,259,260,261"/>
  <line x1="685" x2="1177" y1="492" y2="492" class="net_257,258,259,260,261"/>
  <line x1="544" x2="695" y1="705.5" y2="705.5" class="net_262,263,264,265,266"/>
  <line x1="695" x2="695" y1="705.5" y2="532" class="net_262,263,264,265,266"/>
  <line x1="695" x2="1177" y1="532" y2="532" class="net_262,263,264,265,266"/>
  <line x1="544" x2="705" y1="725.5" y2="725.5" class="net_267,268,269,270,271,272,273,274,275,276,277,278,279,280,281,282,283,284,285,286,287,288,289,290,291,292,293,294,295,296,297,298"/>
  <line x1="705" x2="705" y1="725.5" y2="552" class="net_267,268,269,270,271,272,273,274,275,276,277,278,279,280,281,282,283,284,285,286,287,288,289,290,291,292,293,294,295,296,297,298"/>
  <line x1="705" x2="1177" y1="552" y2="552" class="net_267,268,269,270,271,272,273,274,275,276,277,278,279,280,281,282,283,284,285,286,287,288,289,290,291,292,293,294,295,296,297,298"/>
  <line x1="544" x2="715" y1="745.5" y2="745.5" class="net_299"/>
  <line x1="715" x2="715" y1="745.5" y2="572" class="net_299"/>
  <line x1="715" x2="1177" y1="572" y2="572" class="net_299"/>
  <line x1="544" x2="665" y1="845.5" y2="845.5" class="net_428,429,430,431,432,433,434,435,436,437,438,439,440,441,442,443,444,445,446,447,448,449,450,451,452,453,454,455,456,457,458,459"/>
  <line x1="665" x2="665" y1="845.5" y2="978.5" class="net_428,429,430,431,432,433,434,435,436,437,438,439,440,441,442,443,444,445,446,447,448,449,450,451,452,453,454,455,456,457,458,459"/>
  <line x1="665" x2="1183" y1="978.5" y2="978.5" class="net_428,429,430,431,432,433,434,435,436,437,438,439,440,441,442,443,444,445,446,447,448,449,450,451,452,453,454,455,456,457,458,459"/>
  <line x1="544" x2="655" y1="865.5" y2="865.5" class="net_460,461,462,463,464"/>
  <line x1="655" x2="655" y1="865.5" y2="998.5" class="net_460,461,462,463,464"/>
  <line x1="655" x2="1183" y1="998.5" y2="998.5" class="net_460,461,462,463,464"/>
  <line x1="211" x2="308" y1="925.5" y2="925.5" class="net_154,155"/>
  <line x1="308" x2="308" y1="925.5" y2="1018.5" class="net_154,155"/>
  <line x1="308" x2="1183" y1="1018.5" y2="1018.5" class="net_154,155"/>
  <line x1="1105" x2="1183" y1="244.5" y2="244.5" class="net_68"/>
  <line x1="1105" x2="1115" y1="244.5" y2="244.5" class="net_68"/>
  <line x1="1115" x2="1115" y1="244.5" y2="367" class="net_68"/>
  <circle cx="1115" cy="244.5" r="2" style="fill:#000" class="net_68"/>
  <line x1="1115" x2="1183" y1="367" y2="367" class="net_68"/>
  <line x1="544" x2="655" y1="625.5" y2="625.5" class="net_69,70,71,72,73,74,75,76,77,78,79,80,81,82,83,84,85,86,87,88,89,90,91,92,93,94,95,96,97,98,99,100"/>
  <line x1="655" x2="655" y1="625.5" y2="309.5" class="net_69,70,71,72,73,74,75,76,77,78,79,80,81,82,83,84,85,86,87,88,89,90,91,92,93,94,95,96,97,98,99,100"/>
  <line x1="655" x2="1183" y1="309.5" y2="309.5" class="net_69,70,71,72,73,74,75,76,77,78,79,80,81,82,83,84,85,86,87,88,89,90,91,92,93,94,95,96,97,98,99,100"/>
  <line x1="211" x2="298" y1="805.5" y2="805.5" class="net_101"/>
  <line x1="298" x2="298" y1="805.5" y2="1147" class="net_101"/>
  <line x1="298" x2="1183" y1="1147" y2="1147" class="net_101"/>
  <line x1="544" x2="755" y1="765.5" y2="765.5" class="net_102,103,104,105,106,107,108,109,110,111,112,113,114,115,116,117,118,119,120,121,122,123,124,125,126,127,128,129,130,131,132,133"/>
  <line x1="755" x2="755" y1="765.5" y2="863" class="net_102,103,104,105,106,107,108,109,110,111,112,113,114,115,116,117,118,119,120,121,122,123,124,125,126,127,128,129,130,131,132,133"/>
  <line x1="755" x2="1183" y1="863" y2="863" class="net_102,103,104,105,106,107,108,109,110,111,112,113,114,115,116,117,118,119,120,121,122,123,124,125,126,127,128,129,130,131,132,133"/>
  <line x1="544" x2="735" y1="785.5" y2="785.5" class="net_134,135,136,137"/>
  <line x1="735" x2="735" y1="785.5" y2="928" class="net_134,135,136,137"/>
  <line x1="735" x2="1183" y1="928" y2="928" class="net_134,135,136,137"/>
  <line x1="211" x2="318" y1="785.5" y2="785.5" class="net_138"/>
  <line x1="318" x2="318" y1="785.5" y2="1082" class="net_138"/>
  <line x1="318" x2="1183" y1="1082" y2="1082" class="net_138"/>
  <line x1="1105" x2="1183" y1="387" y2="387" class="net_497,498,499,500,501,502,503,504,505,506,507,508,509,510,511,512,513,514,515,516,517,518,519,520,521,522,523,524,525,526,527"/>
  <line x1="845" x2="914" y1="65.5" y2="65.5" class="net_139,189,190,191,192,193,194,195,196,197,198,199,200,201,202,203,204,205,206,207,208,209,210,211,212,213,214,215,216,217,218,219"/>
  <line x1="914" x2="914" y1="65.5" y2="299.5" class="net_139,189,190,191,192,193,194,195,196,197,198,199,200,201,202,203,204,205,206,207,208,209,210,211,212,213,214,215,216,217,218,219"/>
  <line x1="914" x2="957.5" y1="299.5" y2="299.5" class="net_139,189,190,191,192,193,194,195,196,197,198,199,200,201,202,203,204,205,206,207,208,209,210,211,212,213,214,215,216,217,218,219"/>
  <line x1="957.5" x2="957.5" y1="299.5" y2="200" class="net_139,189,190,191,192,193,194,195,196,197,198,199,200,201,202,203,204,205,206,207,208,209,210,211,212,213,214,215,216,217,218,219"/>
</svg>
